<svg width="39" height="33" viewBox="0 0 39 33" fill="none" xmlns="http://www.w3.org/2000/svg">
<path d="M37.9157 6.14062C37.9157 5.51039 37.5972 4.92144 37.1215 4.41697C36.6423 3.90889 35.9677 3.44598 35.1574 3.0548C33.5348 2.27146 31.2957 1.74063 28.7625 1.74063C26.2294 1.74063 23.9903 2.27146 22.3676 3.0548C21.5573 3.44598 20.8827 3.90889 20.4036 4.41697C19.9278 4.92144 19.6094 5.51039 19.6094 6.14062C19.6094 6.77086 19.9278 7.35981 20.4036 7.86428C20.8827 8.37236 21.5573 8.83527 22.3676 9.22645C23.9903 10.0098 26.2294 10.5406 28.7625 10.5406C31.2957 10.5406 33.5348 10.0098 35.1574 9.22645C35.9677 8.83527 36.6423 8.37236 37.1215 7.86428C37.5972 7.35981 37.9157 6.77086 37.9157 6.14062ZM19.025 6.07969C19.025 4.8627 19.9653 3.63892 21.753 2.68987C23.5184 1.75269 25.9941 1.15625 28.7625 1.15625C31.529 1.15625 34.0038 1.76712 35.7692 2.71883C37.5572 3.68271 38.5 4.92159 38.5 6.14062C38.5 7.35554 37.5624 8.56425 35.7749 9.49847C34.0095 10.4211 31.533 11.0031 28.7625 11.0031C25.9941 11.0031 23.5184 10.4067 21.753 9.4695C19.9653 8.52046 19.025 7.29668 19.025 6.07969Z" fill="#A7AAAD" stroke="#A7AAAD"/>
<path d="M29.5537 6.08517C29.5539 6.08522 29.5531 6.08687 29.5508 6.08995C29.5523 6.08666 29.5535 6.08512 29.5537 6.08517ZM29.4353 6.10955C29.4568 6.12081 29.4746 6.13121 29.4892 6.14062C29.4746 6.15003 29.4568 6.16043 29.4353 6.17169C29.2888 6.24844 29.0517 6.31093 28.7625 6.31093C28.4732 6.31093 28.2361 6.24844 28.0896 6.17169C28.0681 6.16043 28.0504 6.15003 28.0357 6.14062C28.0504 6.13121 28.0681 6.12081 28.0896 6.10955C28.2361 6.0328 28.4732 5.97031 28.7625 5.97031C29.0517 5.97031 29.2888 6.0328 29.4353 6.10955ZM27.9713 6.08517C27.9715 6.08512 27.9726 6.08666 27.9742 6.08995C27.9718 6.08687 27.9711 6.08522 27.9713 6.08517ZM27.9713 6.19607C27.9711 6.19601 27.9718 6.19437 27.9742 6.19129C27.9726 6.19458 27.9715 6.19612 27.9713 6.19607ZM29.5508 6.19129C29.5531 6.19437 29.5539 6.19601 29.5537 6.19607C29.5535 6.19612 29.5523 6.19458 29.5508 6.19129Z" fill="#A7AAAD" stroke="#A7AAAD"/>
<path d="M20.8164 2.19219L21.247 3.05346C21.336 3.00897 21.4034 2.96403 21.449 2.93361L21.4531 2.93087C21.4989 2.90035 21.5216 2.88573 21.5517 2.87065L21.2125 2.19219H21.7547V2.61875C22.0178 2.61875 22.2645 2.49882 22.4129 2.35043L22.2989 2.19219H22.5234L22.5831 2.34934L22.6047 2.34215C22.7706 2.28691 22.9817 2.2166 23.1361 2.1394L23.1337 2.12937C24.7039 1.54074 26.6822 1.15625 28.7625 1.15625C31.5294 1.15625 34.0034 1.76729 35.7524 2.71801C37.5249 3.68147 38.4278 4.9127 38.3785 6.12023L38.3781 6.13042V6.14062C38.3781 6.70718 38.2275 7.21666 37.8591 7.74296L37.7687 7.87208V8.02969V27.1641C37.7687 28.292 36.9015 29.4393 35.2365 30.3342C33.5933 31.2173 31.286 31.7828 28.7016 31.7828C26.1171 31.7828 23.8098 31.2173 22.1666 30.3342C20.5016 29.4393 19.6344 28.292 19.6344 27.1641V25.275V24.775H19.1344H1.58437C1.00739 24.775 0.5 24.2676 0.5 23.6906V3.27656C0.5 2.65113 0.994739 2.19219 1.58437 2.19219H20.8164ZM20.4261 2.37457C20.4163 2.38439 20.3957 2.3998 20.3092 2.45172C20.3054 2.45396 20.3015 2.45632 20.2973 2.4588C20.2285 2.49995 20.1053 2.57356 19.9996 2.67926L20.7067 3.38637C20.7165 3.37655 20.7371 3.36114 20.8237 3.30921C20.8274 3.30697 20.8313 3.30461 20.8355 3.30214C20.9044 3.26098 21.0275 3.18738 21.1332 3.08168L20.4261 2.37457ZM19.3902 3.2277L19.2074 3.41051L19.025 3.59289V2.97188V2.47188H18.525H15.9656H15.4656V2.97188V5.53125V6.03125H15.9656H18.0254C18.025 6.0642 18.025 6.09662 18.025 6.12884V6.14062C18.025 6.71451 18.1691 7.27809 18.4434 7.82673L19.3378 7.37952C19.1247 6.95316 19.025 6.54174 19.025 6.14062C19.025 6.09891 19.0322 6.04715 19.0474 5.96347C19.0486 5.95697 19.0499 5.94998 19.0512 5.9426C19.0573 5.90948 19.0648 5.86864 19.0706 5.83103C19.0777 5.78475 19.0859 5.72129 19.0859 5.65312L19.025 5.64324V5.53125H19.1469C19.1469 5.50072 19.151 5.4741 19.1639 5.43117C19.1713 5.40649 19.1808 5.37895 19.1949 5.33951C19.1969 5.33374 19.1991 5.32768 19.2014 5.32135C19.2135 5.28743 19.2284 5.24585 19.2431 5.20186L19.2217 5.19475C19.2595 5.1176 19.2944 5.03035 19.3208 4.96423L19.3244 4.95523C19.3572 4.8732 19.3795 4.81832 19.3988 4.77986L19.025 4.59297V4.53849L19.4285 4.77266C19.4845 4.68867 19.5218 4.62968 19.5499 4.5852C19.5891 4.52319 19.6105 4.48936 19.6399 4.45528C19.6503 4.44346 19.6607 4.43238 19.6707 4.4223L19.3172 4.06875L19.025 3.77656V3.59375L19.7317 4.30043L19.9145 4.11762L20.0973 3.9348L19.3902 3.2277ZM19.025 5.12917V5.12732L19.0478 5.13678L19.025 5.12917ZM20.5239 3.50824L19.9467 2.70747C19.8108 2.77541 19.7145 2.87257 19.672 2.9154C19.6692 2.91817 19.6667 2.92071 19.6644 2.92301C19.6348 2.9526 19.6241 2.9616 19.6243 2.96182C19.6244 2.96199 19.6318 2.95634 19.642 2.95122L19.8656 3.39844L20.0892 3.84565C20.2844 3.74809 20.3957 3.63656 20.5098 3.52235C20.5145 3.51765 20.5192 3.51295 20.5239 3.50824ZM5.78906 24.4953H6.28906V23.9953V21.4359V20.9359H5.78906H3.22969H2.72969V21.4359V23.9953V24.4953H3.22969H5.78906ZM5.78906 5.97031H6.28906V5.47031V2.97188V2.47188H5.78906H3.22969H2.72969V2.97188V5.47031V5.97031H3.22969H5.78906ZM12.1875 24.4953H12.6875V23.9953V21.4359V20.9359H12.1875H9.62813H9.12813V21.4359V23.9953V24.4953H9.62813H12.1875ZM12.1875 5.97031H12.6875V5.47031V2.97188V2.47188H12.1875H9.62813H9.12813V2.97188V5.47031V5.97031H9.62813H12.1875ZM18.525 24.4953H19.025V23.9953V21.4359V20.9359H18.525H15.9656H15.4656V21.4359V23.9953V24.4953H15.9656H18.525ZM37.2453 27.225V26.725H37.1844V9.55313V8.5928L36.3976 9.14351C34.6792 10.3464 31.8652 11.125 28.7016 11.125C25.5425 11.125 22.7841 10.3483 20.9992 9.13917L20.2188 8.61049V9.55313V27.225C20.2188 27.7654 20.5008 28.2848 20.9138 28.733C21.3333 29.1884 21.9297 29.6177 22.6651 29.9873C24.1382 30.7279 26.2279 31.2594 28.7625 31.2594C31.2971 31.2594 33.3725 30.7279 34.8314 29.9864C35.5598 29.6161 36.1487 29.1862 36.5624 28.7302C36.9702 28.2807 37.2453 27.7622 37.2453 27.225ZM19.6094 6.14062C19.6094 6.77086 19.9278 7.35981 20.4035 7.86428C20.8827 8.37236 21.5573 8.83527 22.3676 9.22645C23.9902 10.0098 26.2294 10.5406 28.7625 10.5406C31.2956 10.5406 33.5348 10.0098 35.1574 9.22645C35.9677 8.83527 36.6423 8.37236 37.1215 7.86428C37.5972 7.35981 37.9156 6.77086 37.9156 6.14062C37.9156 5.51039 37.5972 4.92144 37.1215 4.41697C36.6423 3.90889 35.9677 3.44598 35.1574 3.0548C33.5348 2.27146 31.2956 1.74063 28.7625 1.74063C26.2294 1.74063 23.9902 2.27146 22.3676 3.0548C21.5573 3.44598 20.8827 3.90889 20.4035 4.41697C19.9278 4.92144 19.6094 5.51039 19.6094 6.14062Z" fill="#A7AAAD" stroke="#A7AAAD"/>
<path d="M27.4828 13.8188V16.3781" stroke="#A7AAAD" stroke-width="1.5" stroke-miterlimit="10" stroke-linejoin="round"/>
<path d="M30.0422 13.8188V20.1563" stroke="#A7AAAD" stroke-width="1.5" stroke-miterlimit="10" stroke-linejoin="round"/>
<path d="M24.3141 9.97969V30.3938" stroke="#A7AAAD" stroke-width="1.5" stroke-miterlimit="10" stroke-linejoin="round"/>
</svg>
